<svg width="25" height="24" viewBox="0 0 25 24" fill="none" xmlns="http://www.w3.org/2000/svg">
<path d="M12.5 2C6.98 2 2.5 6.48 2.5 12C2.5 17.52 6.98 22 12.5 22C18.02 22 22.5 17.52 22.5 12C22.5 6.48 18.02 2 12.5 2ZM9.23 7.66C10.04 7.66 10.71 8.32 10.71 9.14C10.71 9.95 10.05 10.62 9.23 10.62C8.42 10.62 7.75 9.96 7.75 9.14C7.75 8.32 8.41 7.66 9.23 7.66ZM9.35 15.8C9.2 15.95 9.01 16.02 8.82 16.02C8.63 16.02 8.44 15.95 8.29 15.8C8 15.51 8 15.03 8.29 14.74L14.84 8.19C15.13 7.9 15.61 7.9 15.9 8.19C16.19 8.48 16.19 8.96 15.9 9.25L9.35 15.8ZM15.77 16.34C14.96 16.34 14.29 15.68 14.29 14.86C14.29 14.05 14.95 13.38 15.77 13.38C16.58 13.38 17.25 14.04 17.25 14.86C17.25 15.68 16.59 16.34 15.77 16.34Z" fill="#536DF9"/>
</svg>
